<?xml version="1.0" encoding="UTF-8" standalone="no"?>
<svg
   xmlns:dc="http://purl.org/dc/elements/1.1/"
   xmlns:cc="http://creativecommons.org/ns#"
   xmlns:rdf="http://www.w3.org/1999/02/22-rdf-syntax-ns#"
   xmlns:svg="http://www.w3.org/2000/svg"
   xmlns="http://www.w3.org/2000/svg"
   xmlns:sodipodi="http://sodipodi.sourceforge.net/DTD/sodipodi-0.dtd"
   xmlns:inkscape="http://www.inkscape.org/namespaces/inkscape"
   width="210mm"
   height="297mm"
   viewBox="0 0 210 297"
   version="1.1"
   id="svg148"
   inkscape:version="1.0.2 (e86c870879, 2021-01-15, custom)"
   sodipodi:docname="logo-multi-okna.svg">
  <defs
     id="defs142">
    <rect
       x="92.475257"
       y="5.078121"
       width="62.273801"
       height="39.288621"
       id="rect167" />
  </defs>
  <sodipodi:namedview
     id="base"
     pagecolor="#ffffff"
     bordercolor="#666666"
     borderopacity="1.0"
     inkscape:pageopacity="0.0"
     inkscape:pageshadow="2"
     inkscape:zoom="0.98994949"
     inkscape:cx="382.01732"
     inkscape:cy="112.89745"
     inkscape:document-units="mm"
     inkscape:current-layer="layer1"
     inkscape:document-rotation="0"
     showgrid="true"
     inkscape:window-width="1378"
     inkscape:window-height="861"
     inkscape:window-x="0"
     inkscape:window-y="0"
     inkscape:window-maximized="0">
    <inkscape:grid
       type="xygrid"
       id="grid111" />
  </sodipodi:namedview>
  <metadata
     id="metadata145">
    <rdf:RDF>
      <cc:Work
         rdf:about="">
        <dc:format>image/svg+xml</dc:format>
        <dc:type
           rdf:resource="http://purl.org/dc/dcmitype/StillImage" />
        <dc:title></dc:title>
      </cc:Work>
    </rdf:RDF>
  </metadata>
  <g
     inkscape:label="Warstwa 1"
     inkscape:groupmode="layer"
     id="layer1">
    <path
       style="fill:#007ec5;fill-opacity:1;stroke-width:0.133635"
       d="m 51.531947,44.429233 c -0.34879,-0.0538 -0.7096,-0.1733 -0.80181,-0.26549 -0.13166,-0.13163 -0.16765,-2.46863 -0.16765,-10.88516 0,-10.00631 0.016,-10.75895 0.24089,-11.34175 0.30931,-0.80155 1.31852,-1.76764 1.71506,-1.64178 0.2287,0.0726 0.26127,0.0428 0.19202,-0.17532 -0.1493,-0.47042 1.97972,-2.97089 2.52957,-2.97089 0.11371,0 0.25853,-0.1362 0.32182,-0.30267 0.29415,-0.77368 2.77586,-3.00072 3.17372,-2.84804 0.11926,0.0458 0.17909,-0.0392 0.17909,-0.25423 0,-0.73108 2.35697,-2.98963 2.95634,-2.83289 0.23243,0.0608 0.26321,0.0242 0.19807,-0.23529 -0.0835,-0.33291 0.36412,-1.0421298 1.08379,-1.7169798 l 0.39721,-0.37247 0.0862,2.1097198 c 0.0915,2.23783 0.39902,33.58326 0.33015,33.6508 -0.0951,0.0933 -11.85874,0.17129 -12.43451,0.0824 z m 10.18904,-11.64512 c 0.41197,-0.41197 0.30311,-1.44133 -0.18704,-1.76862 -0.35115,-0.23446 -1.0393,-0.0992 -1.41702,0.27853 -0.38187,0.38186 -0.63087,1.17878 -0.48615,1.5559 0.12666,0.33007 1.7453,0.27911 2.09021,-0.0658 z"
       id="path119" />
    <path
       style="fill:#007ec5;fill-opacity:1;stroke-width:0.133635"
       d="m 66.047757,44.202853 c -0.24171,-0.36967 -0.24989,-0.87505 -0.22331,-13.78841 l 0.0276,-13.40467 0.73938,-1.37843 c 1.02034,-1.90222 1.48157,-2.51661 1.85089,-2.46549 0.23762,0.0329 0.28646,-0.0172 0.25283,-0.25916 -0.0831,-0.59785 2.04935,-2.49559 4.01269,-3.5710698 1.30364,-0.7141 2.99913,-1.04001 5.45024,-1.04763 1.37593,-0.004 2.20042,0.0586 2.84388,0.21696 4.29548,1.05697 7.31236,3.9510898 8.69775,8.3438398 0.58014,1.83948 0.67345,3.85192 0.68002,14.66579 0.006,9.13488 -0.075,12.35242 -0.31894,12.74721 -0.0789,0.12762 -2.76949,0.18282 -11.93198,0.24479 l -11.83013,0.08 z m 1.95407,-0.61685 c 0.33074,-0.0661 5.21676,-0.1562 10.85782,-0.20012 l 10.25647,-0.0798 -0.003,-9.03615 c -0.004,-10.96631 -0.14182,-15.44496 -0.51749,-16.78695 -0.881,-3.14712 -0.9023,-3.20696 -1.18736,-3.33654 -0.15919,-0.0724 -0.30183,-0.27832 -0.32392,-0.46772 -0.0273,-0.23357 -0.12071,-0.33853 -0.30167,-0.33878 -0.31771,-5.3e-4 -0.87371,-0.78081 -0.87371,-1.2263 0,-0.27604 -0.0579,-0.31476 -0.43431,-0.29035 -0.57879,0.0375 -0.96237,-0.18838 -1.16969,-0.68888 -0.12911,-0.3117 -0.13427,-0.49191 -0.0212,-0.7401 0.18134,-0.3979998 0.15983,-0.4006198 -0.43038,-0.0524 l -0.46723,0.27567 -0.91016,-0.3982 c -1.2718,-0.5564198 -2.68619,-0.7301798 -5.3538,-0.6577198 -2.11349,0.0574 -2.48882,0.11686 -3.51074,0.5560598 -0.14378,0.0618 -0.2483,-0.031 -0.35589,-0.3160798 -0.18251,-0.48352 -0.57645,-0.54704 -0.57645,-0.0929 0,0.6201698 -2.871,3.5049098 -3.842,3.8603698 -0.37778,0.1383 -0.43461,0.22074 -0.43656,0.63328 -0.001,0.26086 -0.21399,0.98544 -0.47278,1.61018 -0.85782,2.07082 -0.86598,2.15421 -1.00668,10.28988 -0.0705,4.0792 -0.0888,9.75035 -0.0405,12.60255 0.0797,4.70491 0.10782,5.17726 0.30386,5.09358 0.11883,-0.0507 0.48668,-0.14635 0.81742,-0.2125 z M 81.710317,9.2643932 c 0.10424,0 0.18952,-0.0601 0.18952,-0.13364 0,-0.0735 -0.30067,-0.13363 -0.66817,-0.13363 -0.3675,0 -0.66817,0.0559 -0.66817,0.12434 0,0.13997 0.50757,0.26436 0.77933,0.19098 0.0979,-0.0264 0.26325,-0.048 0.36749,-0.048 z"
       id="path121" />
    <path
       style="fill:#007ec5;fill-opacity:1;stroke-width:0.133635"
       d="m 73.043287,42.005243 c -3.29631,-0.0635 -4.55759,-0.13138 -4.67722,-0.25151 -0.20938,-0.21028 -0.17834,-17.22761 0.0378,-20.72948 0.22318,-3.61581 0.518,-4.72938 1.64901,-6.22851 1.46209,-1.93798 3.36114,-3.29209 5.24717,-3.74149 1.12102,-0.26711 3.66334,-0.2998 4.79571,-0.0617 2.65581,0.55849 4.72795,2.04602 6.21971,4.46492 0.72872,1.18161 1.00718,1.98128 1.12413,3.22814 l 0.0752,0.80181 -0.19062,-0.66932 c -1.05073,-3.68955 -2.46853,-5.5041 -5.41178,-6.92616 -0.99486,-0.48067 -1.25848,-0.5492 -2.3052,-0.59925 l -1.18188,-0.0565 0.0116,3.59107 c 0.0121,3.74349 0.11451,5.83311 0.2946,6.0132 0.20745,0.20745 5.10965,0.37128 6.81299,0.22768 0.89862,-0.0757 1.73184,-0.18041 1.85162,-0.23258 0.22559,-0.0983 0.24364,0.69001 0.42125,18.39654 l 0.0292,2.90669 -5.14494,-0.0233 c -2.82972,-0.0128 -7.17598,-0.0624 -9.65837,-0.1103 z m 4.31297,-4.94482 v -4.81085 h -4.34313 -4.34313 v 4.74147 4.74148 l 2.97338,0.0387 c 1.63535,0.0213 3.58976,0.0525 4.34313,0.0694 l 1.36975,0.0307 z m 9.98053,4.49174 c 0.0136,-0.0109 0.0679,-2.10589 0.12062,-4.65541 l 0.0959,-4.6355 -2.12514,0.0646 c -6.98696,0.21226 -6.73237,0.1933 -6.79498,0.50611 -0.0315,0.15745 -0.0911,1.66939 -0.13248,3.35987 -0.077,3.14855 -0.2359,4.78851 -0.49402,5.09953 -0.19327,0.23288 -0.0104,0.29297 1.08684,0.35705 0.75466,0.0441 8.17662,-0.0426 8.24328,-0.0962 z m -9.98053,-14.66624 v -4.8291 l -4.2429,0.0979 c -2.55191,0.0589 -4.30948,0.1526 -4.40995,0.23508 -0.19452,0.15967 -0.2076,1.16268 -0.0785,6.01773 l 0.0879,3.30746 h 4.32173 4.32173 z m 10.15625,-0.0486 c 0,-3.81367 -0.0364,-4.87741 -0.16705,-4.87649 -0.0919,5.3e-4 -2.0576,0.0906 -4.36826,0.19983 -3.04123,0.1438 -4.23062,0.24495 -4.30768,0.36632 -0.0585,0.0922 -0.10753,0.97949 -0.10885,1.97173 -10e-4,0.99224 -0.0419,3.02182 -0.0901,4.51018 l -0.0877,2.7061 h 4.56479 4.5648 z m -10.15625,-10.62396 v -4.94449 h -0.93878 c -1.18639,0 -2.18176,0.33996 -3.3727,1.15191 -1.66624,1.13599 -3.23074,3.13067 -3.97041,5.06211 -0.22547,0.58876 -0.32455,1.18352 -0.37288,2.23838 l -0.0658,1.43657 h 4.3603 4.36029 z"
       id="path125" />
    <text
       xml:space="preserve"
       id="text165"
       style="font-style:normal;font-variant:normal;font-weight:normal;font-stretch:normal;font-size:4.93889px;line-height:0;font-family:'Segoe UI Historic';-inkscape-font-specification:'Segoe UI Historic';white-space:pre;shape-inside:url(#rect167);fill:#007ec5;fill-opacity:1;stroke:none;"
       transform="translate(0.18668408,2.4054257)"><tspan
         x="92.474609"
         y="19.059815"><tspan
           style="font-size:15.5222px">Multi-</tspan><tspan
           style="font-size:12.7px;line-height:1.25;fill:#007ec5;fill-opacity:1">
</tspan></tspan><tspan
         x="92.474609"
         y="33.378329"><tspan
           style="font-size:9.87778px">Okna</tspan><tspan
           style="font-style:normal;font-variant:normal;font-weight:normal;font-stretch:normal;line-height:1.25;font-family:Muller;-inkscape-font-specification:Muller;shape-inside:url(#rect167);fill:#007ec5;fill-opacity:1">
</tspan></tspan><tspan
         x="92.474609"
         y="41.93632"><tspan
           style="font-size:5.64444px;fill:#007ec5;fill-opacity:1">Solidny Styl</tspan></tspan></text>
  </g>
</svg>
